<?xml version="1.0" encoding="utf-8"?>
<!-- Generator: Adobe Illustrator 22.1.0, SVG Export Plug-In . SVG Version: 6.00 Build 0)  -->
<svg version="1.1" id="Layer_1" xmlns="http://www.w3.org/2000/svg" xmlns:xlink="http://www.w3.org/1999/xlink" x="0px" y="0px"
	 viewBox="0 0 540 394" style="enable-background:new 0 0 540 394;" xml:space="preserve">
<style type="text/css">
	.st0{fill:none;}
</style>
<g id="Layer_2_1_">
	<g id="Layer_1-2">
		<path d="M105,394c-7.8-21-15.6-42.1-23.4-63.1c-26.4-72-52.8-144-79.2-216c-0.6-1.7-1.1-3.4-1.9-5.6c2.1-0.1,3.6-0.3,5.2-0.3
			c26.2,0,52.3,0.1,78.5-0.1c4,0,5.7,1,6.9,4.9c20.1,60.8,40.3,121.6,60.6,182.4c0.5,1.4,1,2.8,1.8,5.1c4.3-12.6,8.3-24.4,12.3-36.2
			c17.2-50.7,34.3-101.5,51.4-152.2c0.8-2.3,1.4-4,4.6-4c25,0.2,50,0.1,75,0.1c0.8,0.1,1.6,0.2,2.4,0.4c-3.3,9.3-6.5,18.4-9.8,27.4
			c-30.8,85.4-61.6,170.9-92.5,256.3c-0.1,0.3-0.1,0.7-0.1,1H105z"/>
		<path d="M455,394c-0.2-2.3-0.5-4.6-0.5-6.9c0-97.1,0-194.2,0-291.4v-6.4c-15.1,9-29.5,18.3-44.5,26.4s-30.6,15.1-46.8,23
			c-0.2-2.8-0.3-4.4-0.4-5.9c0-22.8,0.1-45.7-0.1-68.5c0-3.8,1.4-5.4,4.7-6.9c33.7-14.8,65.8-33,95.7-54.4c1.3-0.9,2.6-2.1,3.8-3.1
			h6h67v394H455z"/>
	</g>
</g>
<rect x="-30" y="-113.7" class="st0" width="600" height="600"/>
</svg>
