<svg xmlns="http://www.w3.org/2000/svg" viewBox="0 0 595 407"><defs><style>.cls-1{fill:#fff;}</style></defs><title>Asset 1</title><g id="Layer_2" data-name="Layer 2"><g id="Layer_1-2" data-name="Layer 1"><path class="cls-1" d="M439,407H0V0H451c-1.42.28-2.83.6-4.25.85-13.9,2.4-28.19,3.48-41.63,7.46C373.53,17.65,349,36.19,335.66,67.37c-5.82,13.6-7.9,28-8.76,42.82h85.88c.14-1.8.23-3.28.38-4.77,2-19.81,11.36-34.64,30.65-41C463.57,58,482,61.17,497.36,76.25c17.38,17.09,18.57,63.5-17.22,79.46-12.8,5.71-26.32,8.19-40.16,9.26-9.23.71-18.5,1.08-27.77,1.6v65.94c4.35,0,8.36-.32,12.3.05,14.21,1.37,28.64,1.84,42.55,4.76,19.86,4.18,34.75,15.44,39.33,36.45a87.22,87.22,0,0,1,1.52,22.77c-1.27,25.85-19.53,44.47-45.2,46.82-27.67,2.54-47.48-11.17-53.39-37.13-1.1-4.82-1.55-9.8-2.29-14.67H321.42c.56,7.72.67,15.06,1.68,22.27,3.94,28.28,15,52.79,39,69.81,14.93,10.6,32.12,15.94,49.92,19.28C421,404.6,430,405.66,439,407ZM.59,114c.64,2.09,1,3.36,1.42,4.59q50.54,138,101,276c1.23,3.37,3,4,6.24,4,27.16-.11,54.32-.18,81.49.05,4.69,0,6.79-1.26,8.45-5.87q46-128.46,92.44-256.77c2.58-7.15,5.09-14.32,7.7-21.69-1.24-.14-1.89-.27-2.55-.27-24.83,0-49.66.06-74.48-.11-3.37,0-4.15,1.63-5,4.17Q190.19,198.45,163,278.77c-3,8.9-6.07,17.77-9.41,27.56-.81-2.29-1.27-3.53-1.69-4.79q-30.4-91.4-60.72-182.81c-1.19-3.6-2.62-4.88-6.51-4.83-20.5.22-41,.1-61.49.1Z"/><path d="M439,407c-9-1.34-18.05-2.4-27-4.08-17.8-3.34-35-8.68-49.92-19.28-24-17-35.06-41.53-39-69.81-1-7.21-1.12-14.55-1.68-22.27H407c.74,4.87,1.19,9.85,2.29,14.67,5.91,26,25.72,39.67,53.39,37.13,25.67-2.35,43.93-21,45.2-46.82a87.22,87.22,0,0,0-1.52-22.77c-4.58-21-19.47-32.27-39.33-36.45-13.91-2.92-28.34-3.39-42.55-4.76-3.94-.37-7.95-.05-12.3-.05V166.57c9.27-.52,18.54-.89,27.77-1.6,13.84-1.07,27.36-3.55,40.16-9.26,35.79-16,34.6-62.37,17.22-79.46C482,61.17,463.57,58,443.81,64.45c-19.29,6.33-28.66,21.16-30.65,41-.15,1.49-.24,3-.38,4.77H326.9c.86-14.85,2.94-29.22,8.76-42.82C349,36.19,373.53,17.65,405.12,8.31c13.44-4,27.73-5.06,41.63-7.46C448.17.6,449.58.28,451,0h16c2.59.33,5.17.79,7.77,1,22.31,1.7,43.91,6.32,63.31,17.89,37.22,22.2,55.84,55.05,52.64,98.58-2.42,33.05-21.23,55.47-50.4,69.69-7.27,3.55-15,6.24-22.7,9.42,4.15,1.5,8.22,2.8,12.15,4.42,29.92,12.32,52.62,31.67,61.63,64.05,1.64,5.86,2.42,12,3.6,18v16a13.69,13.69,0,0,0-.87,2.7c-2.36,23.14-11.69,43.13-27.39,60.14-20.72,22.46-46.88,35-76.38,41.13-8.05,1.68-16.24,2.71-24.36,4Z"/><path class="cls-1" d="M595,283c-1.18-6-2-12.1-3.6-18-9-32.38-31.71-51.73-61.63-64.05-3.93-1.62-8-2.92-12.15-4.42,7.73-3.18,15.43-5.87,22.7-9.42,29.17-14.22,48-36.64,50.4-69.69,3.2-43.53-15.42-76.38-52.64-98.58C518.68,7.31,497.08,2.69,474.77,1c-2.6-.2-5.18-.66-7.77-1H595Z"/><path class="cls-1" d="M466,407c8.12-1.32,16.31-2.35,24.36-4,29.5-6.14,55.66-18.67,76.38-41.13,15.7-17,25-37,27.39-60.14A13.69,13.69,0,0,1,595,299V407Z"/><path d="M.59,114H23.2c20.49,0,41,.12,61.49-.1,3.89-.05,5.32,1.23,6.51,4.83q30.21,91.46,60.72,182.81c.42,1.26.88,2.5,1.69,4.79,3.34-9.79,6.4-18.66,9.41-27.56q27.15-80.32,54.26-160.69c.86-2.54,1.64-4.2,5-4.17,24.82.17,49.65.09,74.48.11.66,0,1.31.13,2.55.27-2.61,7.37-5.12,14.54-7.7,21.69q-46.28,128.37-92.44,256.77c-1.66,4.61-3.76,5.9-8.45,5.87-27.17-.23-54.33-.16-81.49-.05-3.22,0-5-.65-6.24-4q-50.39-138-101-276C1.57,117.36,1.23,116.09.59,114Z"/></g></g></svg>