<?xml version="1.0" encoding="utf-8"?>
<!-- Generator: Adobe Illustrator 22.1.0, SVG Export Plug-In . SVG Version: 6.00 Build 0)  -->
<svg version="1.1" id="Layer_1" xmlns="http://www.w3.org/2000/svg" xmlns:xlink="http://www.w3.org/1999/xlink" x="0px" y="0px"
	 viewBox="0 0 1440 1440.4" style="enable-background:new 0 0 1440 1440.4;" xml:space="preserve">
<style type="text/css">
	.st0{fill:#FFFFFF;}
</style>
<rect class="st0" width="1440" height="1440"/>
<title>v2-new</title>
<g id="Layer_2_1_">
	<g id="Layer_1-2">
		<path d="M256.4,525.4l141.9,427l144.4-427h178L494.2,1154H290L59.7,525.4H256.4z"/>
		<path d="M778.1,981.1l222.4-202.8c39.3-35.6,83.6-75,129-130.3c47.9-57.8,59-84.8,59-124.1c0-65.1-38.1-109.4-102-109.4
			c-98.3,0-106.9,100.8-108.1,125.4h-188c0-34.4,0-98.3,50.4-161c49.2-61.4,140.1-93.4,244.5-93.4c186.8,0,290,100.8,290,233.5
			c0,88.5-34.4,202.8-405.5,501.4c124.1-2.5,138.9-3.7,235.9-4.9c131.5-2.5,146.2-2.5,174.5-3.7v142.6H778.1V981.1z"/>
	</g>
</g>
</svg>
