<svg xmlns="http://www.w3.org/2000/svg" viewBox="0 0 1000 1000"><defs><style>.cls-1{fill:none;stroke:#000;stroke-width:6px;}</style></defs><title>Untitled-2</title><g id="Layer_2" data-name="Layer 2"><path class="cls-1" d="M387.8,454.55,422,557.45l34.8-102.9h42.9l-54.6,151.5H395.9l-55.5-151.5Z"/><path class="cls-1" d="M512.6,563.75l54.3-49.5c9.6-8.7,20.4-18.3,31.5-31.8,11.7-14.1,14.4-20.7,14.4-30.3,0-15.9-9.3-26.7-24.9-26.7-24,0-26.1,24.6-26.4,30.6H515.6c0-8.4,0-24,12.3-39.3,12-15,34.2-22.8,59.7-22.8,45.6,0,70.8,24.6,70.8,57,0,21.6-8.4,49.5-99,122.4,30.3-.6,33.9-.9,57.6-1.2,32.1-.6,35.7-.6,42.6-.9v34.8h-147Z"/></g></svg>