<?xml version="1.0" encoding="utf-8"?>
<!-- Generator: Adobe Illustrator 22.1.0, SVG Export Plug-In . SVG Version: 6.00 Build 0)  -->
<svg version="1.1" id="Layer_1" xmlns="http://www.w3.org/2000/svg" xmlns:xlink="http://www.w3.org/1999/xlink" x="0px" y="0px"
	 viewBox="0 0 1440 1441.3" style="enable-background:new 0 0 1440 1441.3;" xml:space="preserve">
<style type="text/css">
	.st0{fill:#FFFFFF;}
</style>
<rect class="st0" width="1440" height="1440"/>
<title>v3-new</title>
<g id="Layer_2_1_">
	<g id="Layer_1-2">
		<path d="M264.1,527.3l141.9,427l144.4-427h178L501.9,1156H297.8L67.5,527.3H264.1z"/>
		<path d="M971,907.5c1.2,26.6,8.4,112.1,108.5,112.1c67.5,0,108.5-49.4,108.5-114.6c0-124.2-119.4-124.2-207.4-124.2v-141
			c84.4-2.4,208.6-4.8,208.6-125.4c0-66.3-49.4-100.1-103.7-100.1c-51.9,0-102.5,35-102.5,104.9H798.5c3.6-37.4,7.2-90.4,49.5-142.3
			c55.5-67.5,144.7-92.9,233.9-92.9c214.7,0,283.4,137.5,283.4,229.1c0,141.1-124.2,179.7-161.6,190.5
			c26.5,8.4,61.5,19.3,100.1,51.9c59.1,49.4,68.7,111,68.7,150.7c0,142.3-130.2,248.4-305.1,248.4c-60.3,0-148.3-13.3-202.6-56.7
			c-74.8-61.5-77.2-156.8-77.2-190.5L971,907.5z"/>
	</g>
</g>
</svg>
