<?xml version="1.0" encoding="utf-8"?>
<!-- Generator: Adobe Illustrator 22.1.0, SVG Export Plug-In . SVG Version: 6.00 Build 0)  -->
<svg version="1.1" id="Layer_1" xmlns="http://www.w3.org/2000/svg" xmlns:xlink="http://www.w3.org/1999/xlink" x="0px" y="0px"
	 viewBox="0 0 1900 1900" style="enable-background:new 0 0 1900 1900;" xml:space="preserve">
<g>
	<path d="M-3433.6,755.8l141.9,427l144.4-427h178l-226.5,628.6H-3400l-230.3-628.6H-3433.6z"/>
	<path d="M-2828.6,646.3c80.9-34.9,158.1-78.4,230.3-130.7h160.6v868.9h-188V708.5c-36.1,27.4-108.3,72.2-202.9,110.8V646.3z"/>
</g>
<g>
	<path d="M-1487.5,755.4l141.9,427l144.4-427h178l-226.6,628.6h-204.1l-230.3-628.6H-1487.5z"/>
	<path d="M-969.7,1208.5l225.3-205.4c39.8-36.1,84.6-75.9,130.7-131.9c48.5-58.5,59.8-85.9,59.8-125.7c0-66-38.6-110.8-103.3-110.8
		c-99.6,0-108.3,102.1-109.5,127h-190.5c0-34.9,0-99.6,51-163.1c49.8-62.2,141.9-94.6,247.7-94.6c189.2,0,293.8,102.1,293.8,236.5
		c0,89.6-34.9,205.4-410.8,507.9c125.7-2.5,140.7-3.7,239-5c133.2-2.5,148.1-2.5,176.8-3.7V1384h-609.9V1208.5z"/>
</g>
<g>
	<path d="M489.4,757.1l141.9,427l144.4-427h178l-226.5,628.6H523L292.8,757.1H489.4z"/>
	<path d="M1192.7,1149.2c1.2,27.4,8.7,115.8,112,115.8c69.7,0,112-51,112-118.3c0-128.2-123.2-128.2-214.1-128.2V872.8
		c87.1-2.5,215.3-5,215.3-129.5c0-68.5-51-103.3-107.1-103.3c-53.5,0-105.8,36.1-105.8,108.3h-190.5c3.7-38.6,7.5-93.4,51-146.9
		c57.3-69.7,149.4-95.8,241.5-95.8c221.6,0,292.5,141.9,292.5,236.5c0,145.6-128.2,185.5-166.8,196.7c27.4,8.7,63.5,19.9,103.3,53.5
		c61,51,71,114.5,71,155.6c0,146.9-134.4,256.4-314.9,256.4c-62.2,0-153.1-13.7-209.1-58.5c-77.2-63.5-79.7-161.8-79.7-196.7H1192.7
		z"/>
</g>
</svg>
