<?xml version="1.0" encoding="utf-8"?>
<!-- Generator: Adobe Illustrator 22.1.0, SVG Export Plug-In . SVG Version: 6.00 Build 0)  -->
<svg version="1.1" id="Layer_1" xmlns="http://www.w3.org/2000/svg" xmlns:xlink="http://www.w3.org/1999/xlink" x="0px" y="0px"
	 viewBox="0 0 1900 1900" style="enable-background:new 0 0 1900 1900;" xml:space="preserve">
<style type="text/css">
	.st0{fill:#FFFFFF;}
	.st1{font-family:'MyriadPro-Regular';}
	.st2{font-size:12px;}
</style>
<g>
	<path class="st0" d="M631,788c0-38,0-76,0-114c150.3,0,300.7,0,451,0c-1.6,0.3-3.2,0.5-4.8,0.8c-13.7,2.4-27.8,3.5-41.1,7.4
		c-30.9,9.1-55,27.1-68.7,57.2c-6.4,14.1-8.7,29.2-9.5,44.9c28.9,0,57.3,0,86,0c0.2-1.8,0.3-3.5,0.4-5.1c2.4-25.2,19.5-42,44.5-43.6
		c22.1-1.4,41.2,10,48.1,28.5c10.2,27.7-2.5,56.4-30,67.2c-16.7,6.6-34.3,7.7-52,8.5c-3.9,0.2-7.8,0-11.8,0c0,22.7,0,44.5,0,67.1
		c9,0,17.6-0.3,26.2,0.1c12.8,0.5,25.5,2.2,37.6,6.9c13.9,5.4,24.1,14.5,29.1,28.9c3.2,9.3,3.6,18.9,2.8,28.6
		c-2,25.4-20.3,43.8-45.4,45.7c-29.7,2.3-48.4-12.1-53.9-41.3c-0.7-3.5-1-7.1-1.4-10.7c-28.6,0-56.7,0-86.1,0c1,9.9,1.3,19.5,3,28.9
		c5.4,28.9,18.7,52.9,45.1,67.9c13.3,7.6,27.8,12.1,42.7,14.8c9,1.6,18,2.7,27,4c-146.2,0-292.5,0-439,0c0-97.3,0-194.7,0-292
		c0.7,1.4,1.6,2.8,2.1,4.3c31,84.6,62,169.3,93,253.9c3.1,8.4,6.2,16.8,9.3,25.1c31.1,0,61.7,0,92.6,0
		c34.1-94.7,68.2-189.3,102.4-284.2c-27.4,0-54,0-80.9,0c-21.6,63.7-43.1,127.4-65,192.2C763,915.4,741.9,851.8,720.6,788
		C690.6,788,660.8,788,631,788z"/>
	<path d="M1070,1081c-9-1.3-18.1-2.4-27-4c-15-2.7-29.4-7.2-42.7-14.8c-26.4-15.1-39.8-39-45.1-67.9c-1.7-9.4-2-19-3-28.9
		c29.4,0,57.5,0,86.1,0c0.5,3.5,0.7,7.1,1.4,10.7c5.5,29.2,24.3,43.5,53.9,41.3c25-1.9,43.3-20.3,45.4-45.7
		c0.8-9.7,0.4-19.3-2.8-28.6c-4.9-14.4-15.2-23.5-29.1-28.9c-12.1-4.7-24.8-6.4-37.6-6.9c-8.6-0.3-17.3-0.1-26.2-0.1
		c0-22.7,0-44.4,0-67.1c4,0,7.9,0.2,11.8,0c17.7-0.8,35.3-2,52-8.5c27.4-10.8,40.2-39.5,30-67.2c-6.8-18.5-26-29.9-48.1-28.5
		c-25,1.5-42.1,18.3-44.5,43.6c-0.2,1.6-0.3,3.3-0.4,5.1c-28.7,0-57.1,0-86,0c0.8-15.7,3.1-30.7,9.5-44.9
		c13.6-30.1,37.8-48.1,68.7-57.2c13.3-3.9,27.4-5,41.1-7.4c1.6-0.3,3.2-0.5,4.8-0.8c5.7,0,11.3,0,17,0c2.4,0.3,4.8,0.7,7.3,0.9
		c22.3,1.8,43.7,6.8,63.3,18c37.7,21.4,58,62.3,51.5,104.8c-4.6,30.2-22.8,50.3-49.5,63.4c-7.3,3.6-15,6.3-22.1,9.2
		c7.7,3.3,16,6.2,23.7,10.3c24.2,12.8,42.1,31.3,49.4,58.5c1.5,5.6,2.3,11.3,3.5,16.9c0,5.7,0,11.3,0,17c-0.3,0.9-0.7,1.8-0.8,2.8
		c-2.3,22.8-11.4,42.5-26.7,59.4c-20.6,22.8-46.9,35.5-76.6,41.8c-8.2,1.7-16.6,2.7-24.9,4C1088,1081,1079,1081,1070,1081z"/>
	<path d="M631,788c29.8,0,59.6,0,89.6,0c21.2,63.8,42.4,127.4,63.9,192.3c21.9-64.8,43.5-128.5,65-192.2c26.9,0,53.6,0,80.9,0
		c-34.2,95-68.3,189.5-102.4,284.2c-31,0-61.6,0-92.6,0c-3.1-8.4-6.2-16.7-9.3-25.1c-31-84.6-62-169.3-93-253.9
		c-0.5-1.5-1.4-2.9-2.1-4.3C631,788.7,631,788.3,631,788z"/>
	<path class="st0" d="M1226,956c-1.1-5.7-2-11.4-3.5-16.9c-7.3-27.2-25.2-45.6-49.4-58.5c-7.7-4.1-16-7-23.7-10.3
		c7.1-2.9,14.8-5.6,22.1-9.2c26.7-13.1,44.9-33.2,49.5-63.4c6.5-42.5-13.8-83.4-51.5-104.8c-19.6-11.2-41-16.2-63.3-18
		c-2.4-0.2-4.8-0.6-7.3-0.9c42.3,0,84.7,0,127,0C1226,768,1226,862,1226,956z"/>
	<path class="st0" d="M1097,1081c8.3-1.3,16.7-2.3,24.9-4c29.6-6.3,55.9-19,76.6-41.8c15.3-16.9,24.4-36.6,26.7-59.4
		c0.1-0.9,0.5-1.9,0.8-2.8c0,36,0,72,0,108C1183,1081,1140,1081,1097,1081z"/>
	<text transform="matrix(1 0 0 1 62 350)" class="st1 st2">v3</text>
</g>
</svg>
