<svg xmlns="http://www.w3.org/2000/svg" viewBox="0 0 1305.06 871.92"><title>v3-new</title><g id="Layer_2" data-name="Layer 2"><g id="Layer_1-2" data-name="Layer 1"><path d="M196.68,243.3l141.9,427L483,243.3H661L434.43,871.92H230.29L0,243.3Z"/><path d="M903.5,623.45C904.7,650,911.94,735.59,1012,735.59c67.53,0,108.53-49.44,108.53-114.56,0-124.2-119.39-124.2-207.42-124.2V355.74c84.42-2.41,208.62-4.83,208.62-125.41,0-66.33-49.44-100.09-103.7-100.09-51.86,0-102.5,35-102.5,104.91H731.05c3.62-37.38,7.24-90.44,49.45-142.3C836,25.32,925.2,0,1014.44,0c214.65,0,283.38,137.47,283.38,229.12,0,141.09-124.2,179.68-161.59,190.53,26.53,8.44,61.5,19.29,100.09,51.85,59.09,49.44,68.74,111,68.74,150.74,0,142.29-130.24,248.41-305.09,248.41-60.3,0-148.33-13.26-202.59-56.67-74.77-61.5-77.18-156.77-77.18-190.53Z"/></g></g></svg>
