<svg xmlns="http://www.w3.org/2000/svg" viewBox="0 0 1000 1000"><defs><style>.cls-1{fill:none;stroke:#000;stroke-width:6px;}</style></defs><title>Untitled-2</title><g id="Layer_3" data-name="Layer 3"><path class="cls-1" d="M389,452.3l34.2,102.9L458,452.3h42.9L446.3,603.8H397.1L341.6,452.3Z"/><path class="cls-1" d="M558.5,546.8c.3,6.6,2.1,27.9,27,27.9,16.8,0,27-12.3,27-28.5,0-30.9-29.7-30.9-51.6-30.9V480.2c21-.6,51.9-1.2,51.9-31.2,0-16.5-12.3-24.9-25.8-24.9-12.9,0-25.5,8.7-25.5,26.1H515.6c.9-9.3,1.8-22.5,12.3-35.4,13.8-16.8,36-23.1,58.2-23.1,53.4,0,70.5,34.2,70.5,57,0,35.1-30.9,44.7-40.2,47.4,6.6,2.1,15.3,4.8,24.9,12.9,14.7,12.3,17.1,27.6,17.1,37.5,0,35.4-32.4,61.8-75.9,61.8-15,0-36.9-3.3-50.4-14.1-18.6-15.3-19.2-39-19.2-47.4Z"/></g></svg>